<?xml version="1.0" encoding="UTF-8"?>
<!DOCTYPE svg
PUBLIC "-//W3C//DTD SVG 1.1//EN"
       "http://www.w3.org/Graphics/SVG/1.1/DTD/svg11.dtd">
<svg viewBox="163 28 771 469" width="608px" height="441px" xmlns="http://www.w3.org/2000/svg" version="1.1">
   <line x1="271" y1="263" x2="281" y2="263" style="stroke:#c00;stroke-width:1;"/>
   <line x1="414" y1="404" x2="424" y2="404" style="stroke:#c00;stroke-width:1;"/>
   <line x1="281" y1="263" x2="414" y2="404" style="stroke:#c00;stroke-width:1;"/>
   <line x1="278.5" y1="263" x2="274.96446609407" y2="266.53553390593" style="stroke:#c00;stroke-width:2;"/>
   <line x1="278.5" y1="263" x2="274.96446609407" y2="259.46446609407" style="stroke:#c00;stroke-width:2;"/>
   <line x1="419" y1="404" x2="415.46446609407" y2="407.53553390593" style="stroke:#c00;stroke-width:2;"/>
   <line x1="419" y1="404" x2="415.46446609407" y2="400.46446609407" style="stroke:#c00;stroke-width:2;"/>
   <line x1="543" y1="288" x2="553" y2="288" style="stroke:#c00;stroke-width:1;"/>
   <line x1="635" y1="315" x2="645" y2="315" style="stroke:#c00;stroke-width:1;"/>
   <line x1="553" y1="288" x2="635" y2="315" style="stroke:#c00;stroke-width:1;"/>
   <line x1="550.5" y1="288" x2="546.96446609407" y2="291.53553390593" style="stroke:#c00;stroke-width:2;"/>
   <line x1="550.5" y1="288" x2="546.96446609407" y2="284.46446609407" style="stroke:#c00;stroke-width:2;"/>
   <line x1="640" y1="315" x2="636.46446609407" y2="318.53553390593" style="stroke:#c00;stroke-width:2;"/>
   <line x1="640" y1="315" x2="636.46446609407" y2="311.46446609407" style="stroke:#c00;stroke-width:2;"/>
   <line x1="436" y1="177" x2="426" y2="177" style="stroke:#b0b;stroke-width:1;"/>
   <line x1="303" y1="100" x2="293" y2="100" style="stroke:#b0b;stroke-width:1;"/>
   <line x1="426" y1="177" x2="303" y2="100" style="stroke:#b0b;stroke-width:1;"/>
   <line x1="428.5" y1="177" x2="432.03553390593" y2="180.53553390593" style="stroke:#b0b;stroke-width:2;"/>
   <line x1="428.5" y1="177" x2="432.03553390593" y2="173.46446609407" style="stroke:#b0b;stroke-width:2;"/>
   <line x1="298" y1="100" x2="301.53553390593" y2="103.53553390593" style="stroke:#b0b;stroke-width:2;"/>
   <line x1="298" y1="100" x2="301.53553390593" y2="96.464466094067" style="stroke:#b0b;stroke-width:2;"/>
   <line x1="645" y1="233" x2="635" y2="233" style="stroke:#0bf;stroke-width:1;"/>
   <line x1="635" y1="315" x2="645" y2="315" style="stroke:#0bf;stroke-width:1;"/>
   <line x1="635" y1="233" x2="635" y2="315" style="stroke:#0bf;stroke-width:1;"/>
   <line x1="637.5" y1="233" x2="641.03553390593" y2="236.53553390593" style="stroke:#0bf;stroke-width:2;"/>
   <line x1="637.5" y1="233" x2="641.03553390593" y2="229.46446609407" style="stroke:#0bf;stroke-width:2;"/>
   <line x1="640" y1="315" x2="636.46446609407" y2="318.53553390593" style="stroke:#0bf;stroke-width:2;"/>
   <line x1="640" y1="315" x2="636.46446609407" y2="311.46446609407" style="stroke:#0bf;stroke-width:2;"/>
   <line x1="645" y1="73" x2="635" y2="73" style="stroke:#b0b;stroke-width:1;"/>
   <line x1="561" y1="77" x2="551" y2="77" style="stroke:#b0b;stroke-width:1;"/>
   <line x1="635" y1="73" x2="561" y2="77" style="stroke:#b0b;stroke-width:1;"/>
   <line x1="637.5" y1="73" x2="641.03553390593" y2="76.535533905933" style="stroke:#b0b;stroke-width:2;"/>
   <line x1="637.5" y1="73" x2="641.03553390593" y2="69.464466094067" style="stroke:#b0b;stroke-width:2;"/>
   <line x1="556" y1="77" x2="559.53553390593" y2="80.535533905933" style="stroke:#b0b;stroke-width:2;"/>
   <line x1="556" y1="77" x2="559.53553390593" y2="73.464466094067" style="stroke:#b0b;stroke-width:2;"/>
   <rect width="92" height="20" x="179" y="233" style="fill:#007;stroke:black;"/>
   <text width="92" height="20" x="184" y="247" style="fill:#fff;" font-family="Arial" font-size="16px"> admin</text>
   <rect width="92" height="20" x="179" y="253" style="fill:#aea;stroke:black;"/>
   <text width="92" height="20" x="184" y="267" style="fill:black;" font-family="Arial" font-size="16px">id</text>
   <rect width="92" height="20" x="179" y="273" style="fill:none;stroke:black;"/>
   <text width="92" height="20" x="184" y="287" style="fill:black;" font-family="Arial" font-size="16px">name</text>
   <rect width="92" height="20" x="179" y="293" style="fill:none;stroke:black;"/>
   <text width="92" height="20" x="184" y="307" style="fill:black;" font-family="Arial" font-size="16px">designation</text>
   <rect width="92" height="20" x="179" y="313" style="fill:none;stroke:black;"/>
   <text width="92" height="20" x="184" y="327" style="fill:black;" font-family="Arial" font-size="16px">email</text>
   <rect width="92" height="20" x="179" y="333" style="fill:none;stroke:black;"/>
   <text width="92" height="20" x="184" y="347" style="fill:black;" font-family="Arial" font-size="16px">contact</text>
   <rect width="88" height="20" x="424" y="374" style="fill:#007;stroke:black;"/>
   <text width="88" height="20" x="429" y="388" style="fill:#fff;" font-family="Arial" font-size="16px"> admin_auth</text>
   <rect width="88" height="20" x="424" y="394" style="fill:#aea;stroke:black;"/>
   <text width="88" height="20" x="429" y="408" style="fill:black;" font-family="Arial" font-size="16px">id</text>
   <rect width="88" height="20" x="424" y="414" style="fill:none;stroke:black;"/>
   <text width="88" height="20" x="429" y="428" style="fill:black;" font-family="Arial" font-size="16px">username</text>
   <rect width="88" height="20" x="424" y="434" style="fill:none;stroke:black;"/>
   <text width="88" height="20" x="429" y="448" style="fill:black;" font-family="Arial" font-size="16px">password</text>
   <rect width="115" height="20" x="178" y="70" style="fill:#007;stroke:black;"/>
   <text width="115" height="20" x="183" y="84" style="fill:#fff;" font-family="Arial" font-size="16px"> client</text>
   <rect width="115" height="20" x="178" y="90" style="fill:#aea;stroke:black;"/>
   <text width="115" height="20" x="183" y="104" style="fill:black;" font-family="Arial" font-size="16px">id</text>
   <rect width="115" height="20" x="178" y="110" style="fill:none;stroke:black;"/>
   <text width="115" height="20" x="183" y="124" style="fill:black;" font-family="Arial" font-size="16px">name</text>
   <rect width="115" height="20" x="178" y="130" style="fill:none;stroke:black;"/>
   <text width="115" height="20" x="183" y="144" style="fill:black;" font-family="Arial" font-size="16px">contact_person</text>
   <rect width="115" height="20" x="178" y="150" style="fill:none;stroke:black;"/>
   <text width="115" height="20" x="183" y="164" style="fill:black;" font-family="Arial" font-size="16px">phone</text>
   <rect width="115" height="20" x="178" y="170" style="fill:none;stroke:black;"/>
   <text width="115" height="20" x="183" y="184" style="fill:black;" font-family="Arial" font-size="16px">address</text>
   <rect width="92" height="20" x="645" y="285" style="fill:#007;stroke:black;"/>
   <text width="92" height="20" x="650" y="299" style="fill:#fff;" font-family="Arial" font-size="16px"> employee</text>
   <rect width="92" height="20" x="645" y="305" style="fill:#aea;stroke:black;"/>
   <text width="92" height="20" x="650" y="319" style="fill:black;" font-family="Arial" font-size="16px">id</text>
   <rect width="92" height="20" x="645" y="325" style="fill:none;stroke:black;"/>
   <text width="92" height="20" x="650" y="339" style="fill:black;" font-family="Arial" font-size="16px">name</text>
   <rect width="92" height="20" x="645" y="345" style="fill:none;stroke:black;"/>
   <text width="92" height="20" x="650" y="359" style="fill:black;" font-family="Arial" font-size="16px">designation</text>
   <rect width="92" height="20" x="645" y="365" style="fill:none;stroke:black;"/>
   <text width="92" height="20" x="650" y="379" style="fill:black;" font-family="Arial" font-size="16px">department</text>
   <rect width="92" height="20" x="645" y="385" style="fill:none;stroke:black;"/>
   <text width="92" height="20" x="650" y="399" style="fill:black;" font-family="Arial" font-size="16px">contact</text>
   <rect width="92" height="20" x="645" y="405" style="fill:none;stroke:black;"/>
   <text width="92" height="20" x="650" y="419" style="fill:black;" font-family="Arial" font-size="16px">email</text>
   <rect width="92" height="20" x="645" y="425" style="fill:none;stroke:black;"/>
   <text width="92" height="20" x="650" y="439" style="fill:black;" font-family="Arial" font-size="16px">gender</text>
   <rect width="116" height="20" x="427" y="258" style="fill:#007;stroke:black;"/>
   <text width="116" height="20" x="432" y="272" style="fill:#fff;" font-family="Arial" font-size="16px"> employee_auth</text>
   <rect width="116" height="20" x="427" y="278" style="fill:#aea;stroke:black;"/>
   <text width="116" height="20" x="432" y="292" style="fill:black;" font-family="Arial" font-size="16px">id</text>
   <rect width="116" height="20" x="427" y="298" style="fill:none;stroke:black;"/>
   <text width="116" height="20" x="432" y="312" style="fill:black;" font-family="Arial" font-size="16px">username</text>
   <rect width="116" height="20" x="427" y="318" style="fill:none;stroke:black;"/>
   <text width="116" height="20" x="432" y="332" style="fill:black;" font-family="Arial" font-size="16px">password</text>
   <rect width="115" height="20" x="436" y="47" style="fill:#007;stroke:black;"/>
   <text width="115" height="20" x="441" y="61" style="fill:#fff;" font-family="Arial" font-size="16px"> project_info</text>
   <rect width="115" height="20" x="436" y="67" style="fill:#aea;stroke:black;"/>
   <text width="115" height="20" x="441" y="81" style="fill:black;" font-family="Arial" font-size="16px">id</text>
   <rect width="115" height="20" x="436" y="87" style="fill:none;stroke:black;"/>
   <text width="115" height="20" x="441" y="101" style="fill:black;" font-family="Arial" font-size="16px">project_name</text>
   <rect width="115" height="20" x="436" y="107" style="fill:none;stroke:black;"/>
   <text width="115" height="20" x="441" y="121" style="fill:black;" font-family="Arial" font-size="16px">start_date</text>
   <rect width="115" height="20" x="436" y="127" style="fill:none;stroke:black;"/>
   <text width="115" height="20" x="441" y="141" style="fill:black;" font-family="Arial" font-size="16px">end_date</text>
   <rect width="115" height="20" x="436" y="147" style="fill:none;stroke:black;"/>
   <text width="115" height="20" x="441" y="161" style="fill:black;" font-family="Arial" font-size="16px">estimated_time</text>
   <rect width="115" height="20" x="436" y="167" style="fill:none;stroke:black;"/>
   <text width="115" height="20" x="441" y="181" style="fill:black;" font-family="Arial" font-size="16px">client_id</text>
   <rect width="111" height="20" x="645" y="43" style="fill:#007;stroke:black;"/>
   <text width="111" height="20" x="650" y="57" style="fill:#fff;" font-family="Arial" font-size="16px"> project_task</text>
   <rect width="111" height="20" x="645" y="63" style="fill:none;stroke:black;"/>
   <text width="111" height="20" x="650" y="77" style="fill:black;" font-family="Arial" font-size="16px">id</text>
   <rect width="111" height="20" x="645" y="83" style="fill:none;stroke:black;"/>
   <text width="111" height="20" x="650" y="97" style="fill:black;" font-family="Arial" font-size="16px">task_name</text>
   <rect width="111" height="20" x="645" y="103" style="fill:none;stroke:black;"/>
   <text width="111" height="20" x="650" y="117" style="fill:black;" font-family="Arial" font-size="16px">task_time</text>
   <rect width="111" height="20" x="645" y="123" style="fill:none;stroke:black;"/>
   <text width="111" height="20" x="650" y="137" style="fill:black;" font-family="Arial" font-size="16px">task_start_date</text>
   <rect width="111" height="20" x="645" y="143" style="fill:none;stroke:black;"/>
   <text width="111" height="20" x="650" y="157" style="fill:black;" font-family="Arial" font-size="16px">task_end_date</text>
   <rect width="111" height="20" x="645" y="163" style="fill:none;stroke:black;"/>
   <text width="111" height="20" x="650" y="177" style="fill:black;" font-family="Arial" font-size="16px">progress</text>
   <rect width="111" height="20" x="645" y="183" style="fill:none;stroke:black;"/>
   <text width="111" height="20" x="650" y="197" style="fill:black;" font-family="Arial" font-size="16px">color</text>
   <rect width="111" height="20" x="645" y="203" style="fill:none;stroke:black;"/>
   <text width="111" height="20" x="650" y="217" style="fill:black;" font-family="Arial" font-size="16px">dependency</text>
   <rect width="111" height="20" x="645" y="223" style="fill:none;stroke:black;"/>
   <text width="111" height="20" x="650" y="237" style="fill:black;" font-family="Arial" font-size="16px">assigned</text>
</svg>
